<svg width="172" height="166" viewBox="0 0 172 166" fill="none" xmlns="http://www.w3.org/2000/svg">
<path fill-rule="evenodd" clip-rule="evenodd" d="M35.0506 110.667C47.8985 131.337 62.352 141.671 78.4118 141.671V166L73.5937 148.97C59.1402 146.537 42.2771 141.671 27.8235 114.91L35.0506 110.667ZM136.949 110.667L144.176 114.91C129.723 141.671 112.86 146.537 98.4063 148.97L93.5882 166V141.671C109.648 141.671 124.102 131.337 136.949 110.667ZM86 15.0909L106.235 55.3333H96.1176L86 120.727L75.8824 55.3333H65.7647L86 15.0909ZM65.7647 60.3636L70.8235 85.5152H35.4118L52.0563 90.3432C30.5639 96.7363 13.2116 105.187 0 115.697C7.72811 104.939 16.5186 95.2367 26.3716 86.5916L5.05882 65.3939L9.43066 67.5675C20.0481 72.8463 28.3233 76.9606 34.2563 79.9104L34.3853 79.9748C43.949 72.5465 54.4087 66.0096 65.7647 60.3636ZM106.235 60.3636C133.216 73.7779 155.137 92.2221 172 115.697C158.788 105.187 141.436 96.7363 119.944 90.3432L136.588 85.5152H101.176L106.235 60.3636ZM70.8235 0V30.1818L55.6471 55.3333H40.4706L55.6471 30.1818L70.8235 0ZM101.176 0L116.353 30.1818L131.529 55.3333H116.353L101.176 30.1818V0Z" fill="#1F2326"/>
</svg>
