<svg width="189" height="167" viewBox="0 0 189 167" fill="none" xmlns="http://www.w3.org/2000/svg">
<path fill-rule="evenodd" clip-rule="evenodd" d="M173.25 146.125V167H15.75V146.125H173.25ZM85.5813 21.4073L75.5066 39.7084C52.9426 47.5167 36.75 68.8473 36.75 93.9375C36.75 110.389 43.712 125.224 54.8667 135.691L34.1785 135.694C25.872 123.858 21 109.463 21 93.9375C21 56.5869 49.1946 25.7827 85.5813 21.4073ZM103.424 21.4078C139.808 25.7858 168 56.589 168 93.9375C168 109.463 163.128 123.858 154.821 135.694L134.132 135.692C145.287 125.225 152.25 110.39 152.25 93.9375C152.25 68.851 136.062 47.523 113.504 39.7121L103.424 21.4078ZM94.5 0C146.691 0 189 42.0574 189 93.9375C189 108.936 185.464 123.112 179.176 135.69L167.26 135.691C174.409 123.408 178.5 109.148 178.5 93.9375C178.5 47.8215 140.892 10.4375 94.5 10.4375C48.1078 10.4375 10.5 47.8215 10.5 93.9375C10.5 109.148 14.5913 123.408 21.7397 135.691L9.82422 135.69C3.53588 123.112 0 108.936 0 93.9375C0 42.0574 42.3092 0 94.5 0ZM94.5 20.875L126 83.5C115.5 80.0207 108.5 80.0207 105 83.5C101.5 86.9793 98.0002 100.896 94.5 125.25C90.9998 100.896 87.5002 86.9793 84 83.5C80.4998 80.0207 73.5 80.0207 63 83.5L94.5 20.875Z" fill="#1F2326"/>
</svg>
