<svg width="134" height="182" viewBox="0 0 134 182" fill="none" xmlns="http://www.w3.org/2000/svg">
<path fill-rule="evenodd" clip-rule="evenodd" d="M123.445 0L98.4637 49.3199C106.602 57.0211 111.675 67.9042 111.675 79.9676C111.675 82.5857 111.436 85.1487 110.979 87.6351L134 106.159L106.603 100.025C100.436 111.398 89.1866 119.637 75.8858 121.722L69.2346 182L63.7513 121.888C59.7887 121.379 55.9975 120.326 52.4556 118.806L37.0971 129.113L43.8067 113.814C33.9068 106.425 27.3558 94.8268 26.8279 81.6859L0 71.2857L28.4337 68.2917C30.1479 62.3382 33.1403 56.9232 37.096 52.3593L37.0971 41.7701L49.7965 42.3819C53.3277 40.5667 57.1478 39.2306 61.1699 38.4598H60.7465L67.2637 3.88179L73.6861 37.9272C78.6242 38.44 83.3105 39.7959 87.5974 41.8482L123.445 0ZM69.2346 60.2415C58.2959 60.2415 49.4288 69.0733 49.4288 79.9676C49.4288 90.8619 58.2959 99.6937 69.2346 99.6937C80.1727 99.6937 89.0403 90.8619 89.0403 79.9676C89.0403 69.0733 80.1727 60.2415 69.2346 60.2415Z" fill="#1F2326"/>
</svg>
