<svg width="227" height="168" viewBox="0 0 227 168" fill="none" xmlns="http://www.w3.org/2000/svg">
<path fill-rule="evenodd" clip-rule="evenodd" d="M47.5023 0.0989312C39.3246 47.8495 48.7016 116.923 107.194 168C79.0124 166.67 56.5205 162.735 39.7193 156.196C49.9804 149.619 55.1106 146.331 55.1106 146.331C-4.19073 107.373 -3.66485 58.5057 3.02648 45.8677C9.39566 59.5423 16.1071 67.8266 23.1608 70.7212C20.9934 40.2939 29.1071 16.7533 47.5023 0.0989312ZM179.498 0C197.893 16.6544 206.006 40.1949 203.839 70.6222C210.893 67.7283 217.604 59.4434 223.973 45.7694C230.665 58.4068 231.191 107.274 171.89 146.232C171.89 146.232 177.02 149.521 187.281 156.097C170.48 162.636 147.988 166.571 119.806 167.901C178.298 116.824 187.675 47.7506 179.498 0ZM151.002 82.5521C153.93 98.6172 137.537 116.302 113.506 130.586L113.507 130.59H113.5C89.4696 116.302 73.0776 98.6172 76.0047 82.5521C78.9317 66.4844 105.413 61.0842 113.507 82.5521L113.5 82.5452L113.977 81.3655C122.585 61.292 148.13 66.7881 151.002 82.5521ZM113.5 31.0931C120.465 31.0931 126.111 36.6613 126.111 43.53C126.111 50.3988 120.465 55.967 113.5 55.967C106.535 55.967 100.889 50.3988 100.889 43.53C100.889 36.6613 106.535 31.0931 113.5 31.0931Z" fill="#1F2326"/>
</svg>
