<svg width="93" height="167" viewBox="0 0 93 167" fill="none" xmlns="http://www.w3.org/2000/svg">
<path fill-rule="evenodd" clip-rule="evenodd" d="M38.641 0C32.7649 21.7267 24.8976 62.7262 44.7232 71.0089C57.941 76.5312 60.5361 61.4182 52.5102 25.6713C65.6795 44.4819 71.3408 62.626 69.4945 80.104C71.9424 81.4989 74.2546 83.112 76.4015 84.9161C79.5615 83.0216 81.141 79.3918 81.141 74.0321C84.5605 80.269 85.399 86.4446 83.6559 92.5588C89.5203 100.337 93 110.02 93 120.516C93 146.188 72.1812 167 46.5 167C20.8188 167 0 146.188 0 120.516C0 113.117 1.72931 106.122 4.80614 99.9122C1.78169 92.9065 2.58491 83.2706 7.21778 71.0089C7.21778 82.0491 9.30588 84.7053 11.7718 86.2673C12.4664 86.7069 13.2946 86.9613 14.2564 87.0296C15.6553 85.6764 17.1355 84.4195 18.691 83.2574C16.2505 51.2351 22.8995 23.4812 38.641 0ZM46.5 98.4976C34.3351 98.4976 24.4737 108.355 24.4737 120.516C24.4737 129.985 30.4531 138.058 38.8437 141.168C39.6523 133.552 42.8221 128.32 48.3551 125.463C48.3551 131.567 47.5563 137.778 51.733 141.907C61.3766 139.556 68.5263 130.871 68.5263 120.516C68.5263 108.355 58.6649 98.4976 46.5 98.4976Z" fill="#1F2326"/>
</svg>
