<svg width="153" height="167" viewBox="0 0 153 167" fill="none" xmlns="http://www.w3.org/2000/svg">
<path fill-rule="evenodd" clip-rule="evenodd" d="M76.5 0L77.21 1.67481C84.4785 19.2865 89.4785 45.8567 92.2085 81.3852L92.4579 84.7424L81.0732 98.8711V104.915C83.8757 104.915 92.4579 110.775 92.4579 119.804C92.4579 128.441 86.7954 132.734 84.7365 133.09L84.479 133.115V163.037C84.479 165.322 82.162 166.626 77.5282 166.946L76.5 167C71.1807 166.807 68.5211 165.486 68.5211 163.037V133.115C66.7315 133.115 60.5421 128.834 60.5421 119.804C60.5421 110.775 69.1244 104.915 71.9269 104.915V98.8711L60.5421 84.7424C63.2951 46.3633 68.6144 18.1155 76.5 0ZM0.0616668 25.8152L1.21952 26.9244C12.059 37.531 23.8262 55.2699 36.5211 80.1408L37.8849 82.8325L33.3392 96.6409L35.1574 101.056C37.3223 100.198 45.7164 101.849 48.4327 108.446C51.1494 115.042 47.6549 120.065 46.2723 120.613C52.5831 135.937 56.1067 144.494 56.8436 146.284C57.528 147.945 56.1475 149.598 52.7024 151.243L51.8711 151.622C47.7029 153.111 45.2503 152.96 44.5133 151.171L33.942 125.5C32.5594 126.049 26.4894 124.817 23.7726 118.221C21.0564 111.624 25.9254 104.716 28.0903 103.858L26.2716 99.4419L13.2248 92.6076C3.80629 63.7282 -0.581494 41.4641 0.0616668 25.8152ZM152.938 25.8152C153.581 41.4641 149.194 63.7282 139.775 92.6076L126.728 99.4419L124.91 103.858C127.075 104.716 131.944 111.624 129.227 118.221C126.511 124.817 120.441 126.049 119.058 125.5L108.487 151.171C107.75 152.96 105.297 153.111 101.129 151.622L100.298 151.243C96.8526 149.598 95.4725 147.945 96.1565 146.284C96.8934 144.494 100.417 135.937 106.728 120.613C105.345 120.065 101.851 115.042 104.567 108.446C107.284 101.849 115.678 100.198 117.843 101.056L119.661 96.6409L115.115 82.8325L116.479 80.1408C129.174 55.2699 140.941 37.531 151.781 26.9244L152.938 25.8152ZM76.5 112.203C72.0931 112.203 68.5211 115.708 68.5211 120.031C68.5211 124.355 72.0931 127.86 76.5 127.86C80.9069 127.86 84.479 124.355 84.479 120.031C84.479 115.708 80.9069 112.203 76.5 112.203ZM33.8161 107.781C30.4113 109.13 28.7054 112.785 30.0064 115.943C31.3069 119.101 35.1212 120.567 38.5259 119.218C41.9312 117.868 43.6366 114.214 42.3361 111.056C41.0356 107.897 37.2208 106.431 33.8161 107.781ZM119.184 107.781C115.779 106.431 111.964 107.897 110.664 111.056C109.363 114.214 111.069 117.868 114.474 119.218C117.879 120.567 121.693 119.101 122.994 115.943C124.295 112.785 122.589 109.13 119.184 107.781Z" fill="#1F2326"/>
</svg>
