<svg width="125" height="166" viewBox="0 0 125 166" fill="none" xmlns="http://www.w3.org/2000/svg">
<path fill-rule="evenodd" clip-rule="evenodd" d="M65.5032 120.402L84.7343 135.761C85.8745 136.672 86.5384 138.051 86.5384 139.509V166L62.5 146.801L38.4616 166V139.509C38.4616 138.051 39.1255 136.672 40.2657 135.761L59.4968 120.402C61.2523 119 63.7477 119 65.5032 120.402ZM65.7162 63.2972L108.985 102.174C109.999 103.085 110.577 104.381 110.577 105.742V132.403L65.7162 92.095C63.888 90.4525 61.112 90.4525 59.2838 92.095L14.4231 132.403V105.742C14.4231 104.381 15.0014 103.085 16.0148 102.174L59.2838 63.2972C61.112 61.6542 63.888 61.6542 65.7162 63.2972ZM65.8995 1.40578L122.184 57.596C123.987 59.3962 125 61.8378 125 64.3836V98.8046L105.769 84.4059V71.9951C105.769 70.722 105.262 69.501 104.361 68.6009L65.8995 30.2037C64.0222 28.3293 60.9778 28.3293 59.1005 30.2037L20.6389 68.6009C19.7375 69.501 19.2306 70.722 19.2306 71.9951V84.4059L0 98.8046V64.3836C0 61.8378 1.01296 59.3962 2.8162 57.596L59.1005 1.40578C60.9778 -0.468593 64.0222 -0.468593 65.8995 1.40578Z" fill="#1F2326"/>
</svg>
