<svg width="188" height="146" viewBox="0 0 188 146" fill="none" xmlns="http://www.w3.org/2000/svg">
<path fill-rule="evenodd" clip-rule="evenodd" d="M114.321 36.5C110.692 50.4049 101.618 57.3571 87.1016 57.3571H0C3.62921 46.9286 9.0731 41.7143 16.3313 41.7143H81.6576C74.3992 34.7621 67.1408 31.2857 59.8824 31.2857H32.6631C36.1272 24.6495 42.8984 21.1804 52.9763 20.8785L56.5214 20.8285C72.1206 20.3946 86.87 14.977 81.6576 0H108.877L186.271 69.1878C188.469 71.1531 188.587 74.4527 186.536 76.5577C186.451 76.6453 186.362 76.7303 186.271 76.8122L108.877 146H81.6576C87.1015 130.357 70.7702 125.143 54.4384 125.143C44.0458 125.143 36.9598 121.976 33.1804 115.641L32.6631 114.714H59.8824C66.7137 114.714 73.5451 111.635 80.3771 105.477L81.6576 104.286H16.3313C9.38867 104.286 4.10603 99.5152 0.483645 89.9735L0 88.6429H87.1016C101.134 88.6429 110.081 95.1393 113.94 108.133L114.321 109.5L152.428 73L114.321 36.5Z" fill="#1F2326"/>
</svg>
